<svg width="418" height="736" viewBox="0 0 418 736" fill="none" xmlns="http://www.w3.org/2000/svg">
<path d="M207.764 236.044L199.638 244.253C179.25 264.82 128.527 284.072 90.2331 294.975C50.7388 306.219 15.5158 312.507 11.8975 313.136L2.40265 314.78L2.41645 324.413C2.48861 409.311 25.09 519.167 70.4695 602.541C90.5367 639.409 112.91 669.95 135.358 692.5C157.805 715.049 180.17 729.96 202.084 734.128L204.226 734.528L206.368 734.128C229.336 729.732 252.074 711.59 275.389 686.128C298.704 660.667 322.002 627.292 342.046 590.517C387.207 507.661 413.037 409.502 413.112 324.413V314.78L403.617 313.136C400.004 312.508 364.788 306.219 325.295 294.975C287.001 284.072 236.279 264.82 215.891 244.253L207.764 236.044Z" fill="#B5E853"/>
<path d="M200.223 709.36C156.701 694.618 100.809 625.403 62.5806 538.906C33.8197 473.831 16.3545 400.837 14.8278 339.329L14.4543 324.28L20.086 323.264C39.1476 319.827 69.2877 312.728 92.0865 306.308L106.332 302.296L99.2759 295.613C90.7356 287.524 69.7646 265.391 61.3446 255.578C46.5742 238.365 43.6405 233.075 41.0461 218.977C34.99 186.068 25.7393 120.207 22.1544 84.4753C19.2108 55.1363 19.1234 50.6044 20.986 23.815C21.8966 10.7168 22.7956 0 22.9839 0C23.172 0 26.5426 7.48152 30.4739 16.6255C49.8892 61.785 63.5877 91.371 100.307 167.454C114.105 196.043 123.644 216.114 137.609 245.938C145.328 262.422 146.642 265.656 146.982 269.004C147.295 272.076 148.007 274.066 150.354 278.434C151.991 281.478 153.599 283.881 153.929 283.773C154.615 283.548 154.446 259.409 153.603 237.25C153.308 229.507 152.787 213.466 152.444 201.603C150.998 151.537 150.524 139.594 149.323 122.819C148.221 107.437 148.025 98.4246 147.811 53.3215L147.565 1.49779L150.501 4.79299C161.587 17.2334 167.947 24.684 171.012 28.8174C181.021 42.3174 192.91 65.0353 202.457 88.9043C206.111 98.0411 227.479 160.883 230.638 171.781C232.365 177.742 232.515 182.605 231.175 189.197C229.415 197.85 218.029 242.455 214.43 254.796L213.593 257.662L219.109 261.742C243.589 279.852 285.796 296.848 342.051 311.248C358.008 315.332 382.245 320.775 394.325 322.988L401.664 324.333L401.656 326.175C401.652 327.188 401.387 333.948 401.067 341.197C398.957 389.045 389.686 437.516 373.22 486.783C342.729 578.016 290.042 660.626 239.185 696.939C236.649 698.751 234.739 700.398 234.941 700.6C235.144 700.802 234.874 700.967 234.343 700.967C233.813 700.967 230.599 702.435 227.204 704.229C220.141 707.959 211.144 711.158 207.761 711.143C206.491 711.136 203.1 710.33 200.223 709.36ZM216.064 680.776C248.588 653.804 268.337 617.388 273.223 575.38C274.419 565.103 274.071 542.22 272.577 532.915C270.164 517.876 266.399 504.786 261.722 495.168L259.098 489.773L250.549 490.27C239.399 490.918 218.643 490.359 210.007 489.176C196.459 487.321 185.038 483.929 174.299 478.57C164.594 473.726 156.243 467.911 158.993 467.911C159.306 467.911 161.261 469.095 163.336 470.541C168.703 474.283 177.535 478.829 184.303 481.334C201.482 487.692 219.982 489.89 247.391 488.829C268.729 488.003 271.418 487.081 282.113 476.922C285.547 473.661 290.334 469.659 292.751 468.027C302.928 461.161 305.802 454.691 304.908 440.667C304.583 435.575 304.112 433.145 302.82 429.883C300.272 423.455 298.364 417.082 293.207 397.785C287.223 375.387 284.409 366.234 280.701 357.1C275.685 344.744 270.605 337.276 264.325 333.018C262.26 331.618 256.917 327.747 252.45 324.413C235.623 311.856 223.609 306.125 201.528 300.124C196.437 298.741 192.192 297.541 192.094 297.457C191.995 297.373 195.011 285.882 198.794 271.921C217.452 203.072 222.349 183.175 221.627 179.136C221.056 175.932 198.265 107.559 194.369 97.3568C188.587 82.2208 181.111 66.0837 173.831 53.022C170.561 47.1549 161.752 33.737 159.278 30.8546L157.735 29.0573L158.029 63.5066C158.216 85.5353 158.654 102.6 159.242 110.837C160.963 134.903 161.999 158.399 162.636 187.823C162.986 203.97 163.391 217.719 163.536 218.378C163.682 219.038 164.07 230.765 164.397 244.44C164.726 258.115 165.171 274.32 165.387 280.452L165.78 291.6L171.237 291.975C177.258 292.388 181.188 293.287 181.188 294.251C181.188 294.672 180.157 294.712 178.043 294.373C172.972 293.558 156.744 293.759 153.152 294.683C150.36 295.4 149.935 295.714 149.618 297.296C149.382 298.476 149.117 298.813 148.847 298.278C148.62 297.829 145.829 292.58 142.644 286.614C137.484 276.948 136.854 275.431 136.854 272.692C136.854 269.967 135.672 267.084 126.441 247.293C114.636 221.983 103.035 197.604 85.0258 160.264C61.5402 111.569 45.8441 78.1605 35.4841 54.8193C32.8515 48.888 30.5506 43.9004 30.371 43.7356C29.779 43.1924 30.7749 62.9728 31.9937 75.9626C35.1111 109.189 41.5151 156.859 48.832 201.303C53.0067 226.661 53.0387 226.783 57.1724 232.956C65.6158 245.566 92.5209 274.891 114.911 295.887L122.025 302.559L119.491 305.308C114.895 310.294 109.428 323.585 102.974 345.464C101.504 350.446 99.382 356.512 98.2583 358.944C91.7751 372.977 89.6699 400.833 94.532 408.254C95.0726 409.079 95.5149 409.875 95.5149 410.023C95.5149 410.171 93.7685 411.269 91.6343 412.462C82.155 417.764 68.2815 429.684 59.8737 439.752C55.2218 445.323 49.2865 454.433 47.596 458.598L46.3233 461.735L49.7058 471.263C68.7025 524.779 95.1243 575.278 124.907 614.994C147.913 645.672 173.226 669.382 193.916 679.633C199.906 682.601 207.046 685.274 209.175 685.346C209.989 685.373 212.647 683.609 216.064 680.776ZM169.903 397.846C165.065 396.064 161.473 393.758 157.748 390.039C151.841 384.144 150.053 379.101 150.042 368.308L150.033 361.268H146.139H142.245V356.099V350.93L144.737 351.328C157.086 353.303 182.657 372.295 194.655 388.405L196.348 390.678L194.31 392.784C193.189 393.941 190.526 395.749 188.393 396.801C184.974 398.487 183.841 398.731 178.807 398.868C174.332 398.99 172.41 398.769 169.903 397.846Z" fill="#151515"/>
<path fill-rule="evenodd" clip-rule="evenodd" d="M147.229 1.06464L147.768 63.5894C147.957 85.7088 148.377 102.693 149.012 111.575C150.72 135.459 151.75 158.743 152.385 188.045V188.086V188.142C153.35 219.385 154.239 254.213 155.135 280.795V280.81L155.245 284.14C154.572 284.188 153.789 284.321 153.103 284.417C152.674 283.611 152.342 283.002 151.887 282.15C134.235 237.209 110.925 190.364 94.2686 155.815V155.801C70.8036 107.148 55.1335 73.8003 44.8596 50.6533C43.5263 47.6492 42.2788 44.8919 41.3216 42.8169C40.8429 41.7795 40.4501 40.917 40.1192 40.2325C39.9537 39.8902 39.8062 39.6069 39.6354 39.2788C39.55 39.1148 39.4709 38.9443 39.3037 38.6569C39.2201 38.5132 39.1202 38.3518 38.9168 38.0488C38.815 37.8973 38.6891 37.7157 38.4745 37.4407C38.2599 37.1656 37.3164 36.1718 37.3136 36.1692C37.3089 36.1649 34.1807 34.2084 34.1763 34.2066C34.1718 34.2049 28.749 33.584 28.7447 33.5847C28.7405 33.5854 24.1188 35.558 24.1148 35.5611C24.1128 35.5626 22.79 36.7751 22.788 36.7773C22.786 36.7794 22.1574 37.5068 21.9311 37.8277C20.1209 40.3941 20.3788 41.1185 20.245 41.7527C19.9775 43.0211 19.9947 43.399 19.9686 43.8949C19.9164 44.8869 19.9247 45.7629 19.9409 46.8664C19.9734 49.0733 20.0914 51.9726 20.2588 55.297C20.5936 61.9459 21.1487 70.208 21.7791 76.9264C24.9333 110.545 31.3574 158.313 38.7094 202.971C40.797 215.652 41.7869 221.988 43.0906 226.936C44.3943 231.884 46.5691 235.567 48.6465 238.67C58.5621 253.478 84.7986 281.656 107.606 303.074L111.945 298.348C103.939 307.034 99.7153 320.255 93.1353 342.56C91.7844 347.139 89.4085 353.642 88.9476 354.639C84.7993 363.619 82.7138 374.708 81.9129 385.307C81.5124 390.607 81.4744 395.724 81.9405 400.413C82.1247 402.268 83.1764 403.982 83.5299 405.734C72.7262 412.431 60.5991 422.874 51.9911 433.182H52.0049C46.5771 439.682 40.9645 447.654 38.0875 454.742L35.351 461.487L40.0362 474.7C59.3555 529.125 86.1595 580.418 116.7 621.144L116.934 621.475L117.211 621.779C141.946 649.879 166.482 682.84 206.133 695.139L210.957 696.646L215.089 693.73C253.538 666.583 278.437 614.688 283.391 576.71L283.405 576.641L283.419 576.571C284.844 564.33 284.585 542.952 282.714 531.295C280.505 517.529 276.784 506.034 272.446 495.831C278.911 493.509 283.756 489.514 289.182 484.36C292.201 481.493 297.304 477.334 298.484 476.537C304.439 472.519 309.504 467.624 312.36 461.196C315.216 454.768 315.649 447.818 315.151 440.009C314.8 434.495 313.981 430.197 312.36 426.106C310.02 420.204 308.266 414.366 303.127 395.134C297.115 372.635 294.13 362.914 290.204 353.243C284.822 339.985 278.848 330.467 270.082 324.524C268.484 323.44 262.959 319.455 258.583 316.19C241.162 303.189 227.067 296.481 204.489 290.318C205.647 285.928 207.048 280.714 208.704 274.604C218.039 240.157 223.932 217.952 227.445 203.676C229.201 196.538 230.362 191.398 231.08 187.52C231.797 183.641 232.519 181.756 231.729 177.334C231.453 175.783 231.349 175.691 231.121 174.915C230.893 174.139 230.603 173.199 230.25 172.068C229.544 169.806 228.577 166.809 227.431 163.278C225.139 156.216 222.107 147.031 218.973 137.627C212.704 118.819 206.245 99.7006 203.95 93.6909C197.983 78.072 190.366 61.6191 182.79 48.0273C180.867 44.5777 177.835 39.7667 174.829 35.1879C171.823 30.6091 169.506 27.019 167.062 24.1728L147.229 1.06464ZM168.347 65.5381C174.159 76.7141 180.162 88.9251 184.78 101.016C186.382 105.209 193.27 125.378 199.513 144.109C202.635 153.474 205.652 162.63 207.916 169.608C209.048 173.097 209.988 176.046 210.653 178.177C210.985 179.242 211.256 180.11 211.427 180.692C211.597 181.274 211.728 182.091 211.523 180.941C211.094 178.538 211.482 180.648 210.901 183.788C210.321 186.928 209.225 191.822 207.515 198.77C204.096 212.664 198.208 234.839 188.885 269.241C187.303 275.08 186.011 279.95 184.863 284.292C183.227 283.509 182.028 283.2 180.758 282.91C178.143 282.312 175.306 281.966 171.941 281.735L175.714 281.998L175.645 280.104V280.09C174.755 253.682 173.861 218.896 172.894 187.602V187.505C172.254 158.01 171.212 134.327 169.481 110.11C168.962 102.861 168.549 86.0595 168.347 65.5381ZM45.6336 100.56C54.7265 120.081 61.5262 135.14 75.7903 164.715H75.7762C92.6239 199.66 115.89 246.434 133.091 290.359L133.312 290.912L133.588 291.451C135.178 294.43 136.669 297.222 137.79 299.329C138.91 301.436 139.969 303.461 139.683 302.895V302.909C140.251 304.033 140.828 306.384 145.419 308.119C147.714 308.987 151.055 308.875 153.255 307.912C155.455 306.949 156.602 305.686 157.318 304.775C157.479 304.57 157.318 304.657 157.456 304.47C157.994 304.404 157.811 304.419 158.507 304.374C160.365 304.254 162.745 304.169 165.168 304.139C170.016 304.079 175.707 304.384 176.418 304.498C177.796 304.72 178.901 304.917 180.8 304.844C181.611 304.813 182.863 304.628 184.531 304.014C184.943 304.572 185.457 305.272 185.457 305.272C185.532 305.327 186.672 306.17 186.673 306.17C186.675 306.171 187.178 306.467 187.351 306.557C187.695 306.738 187.882 306.82 188.042 306.889C188.361 307.027 188.52 307.077 188.65 307.124C188.91 307.219 189.038 307.26 189.175 307.304C189.448 307.392 189.691 307.468 189.977 307.552C190.548 307.722 191.266 307.926 192.146 308.174C193.906 308.672 196.262 309.327 198.836 310.026C220.23 315.84 230.16 320.585 246.31 332.637C250.868 336.039 256.038 339.794 258.569 341.51C262.363 344.082 266.537 349.501 271.187 360.956C274.677 369.553 277.337 378.131 283.294 400.427C288.468 419.791 290.53 426.71 293.286 433.666C294.25 436.099 294.37 436.652 294.668 441.323C295.065 447.538 294.506 450.834 293.604 452.863C292.702 454.893 291.233 456.677 287.012 459.525C283.352 461.995 278.89 465.836 275.043 469.489C269.894 474.38 268.077 475.762 265.41 476.676C262.743 477.591 257.539 478.162 247.001 478.57H246.987C220.303 479.603 203.513 477.507 187.862 471.715C182.158 469.604 173.437 465.075 169.204 462.123C168.003 461.286 166.863 460.545 165.818 459.912C165.295 459.595 164.813 459.315 164.201 459C163.894 458.842 163.573 458.672 163.012 458.447C162.452 458.221 162.258 457.645 158.99 457.645C157.914 457.645 156.426 457.6 154.015 458.806C151.604 460.012 148.564 463.885 148.252 467.209C147.626 473.857 150.25 474.641 151.168 475.681C153.004 477.762 154.331 478.598 156.116 479.841C159.685 482.326 164.447 485.117 169.715 487.747C181.507 493.632 194.174 497.364 208.62 499.342C219.014 500.765 238.918 501.228 251.147 500.517L252.708 500.434C256.625 508.697 260.207 520.551 262.452 534.543C263.565 541.482 263.992 565.749 263.032 574.112C259.153 603.716 236.479 649.778 207.225 673.165C178.312 661.985 156.8 635.71 132.994 608.636C104.023 569.956 78.0161 520.356 59.3714 467.831L57.3397 462.095C58.0789 460.497 63.9568 450.864 67.7467 446.326C75.1487 437.461 89.1626 425.606 96.6458 421.421C97.8428 420.752 98.9163 420.121 99.8383 419.541C100.299 419.251 100.7 418.991 101.22 418.615C101.481 418.427 101.749 418.238 102.285 417.758C102.553 417.518 102.882 417.245 103.473 416.514C103.769 416.149 104.143 415.674 104.606 414.787C104.838 414.343 105.324 413.034 105.325 413.032C105.326 413.029 105.781 410.021 105.781 410.019C105.781 407.443 105.353 407.064 105.173 406.55C104.993 406.035 104.871 405.758 104.758 405.513C104.533 405.024 104.362 404.714 104.192 404.408C103.851 403.794 103.51 403.23 103.114 402.625C103.697 403.515 102.672 401.441 102.367 398.382C102.063 395.323 102.039 391.202 102.367 386.855C103.024 378.163 105.243 368.304 107.578 363.25C109.364 359.384 111.227 353.75 112.816 348.365C119.144 326.912 125.852 313.551 127.037 312.265L136.463 302.038L121.924 288.397C100.019 267.855 72.6298 237.601 65.7012 227.254C63.6449 224.183 63.7265 224.708 62.9371 221.712C62.1477 218.716 61.0439 212.318 58.9567 199.64C53.168 164.478 49.0792 130.861 45.6336 100.56ZM141.798 291.603C141.093 292.998 139.702 294.565 139.559 295.279C139.549 295.328 138.57 295.404 141.176 292.087C141.281 291.953 141.668 291.755 141.798 291.603ZM131.985 338.897V356.104V371.528H139.78V368.322C139.781 369.498 140.237 370.393 140.305 371.528C140.932 381.899 143.974 390.786 150.505 397.304C155.063 401.853 160.37 405.271 166.357 407.476C169.963 408.804 174.194 409.253 179.086 409.12C184.41 408.975 189.061 407.907 192.934 405.997C196.213 404.38 198.627 403.072 201.683 399.916L209.796 391.554L202.885 382.281C195.954 372.975 186.06 363.835 175.949 356.325C165.838 348.815 156.508 342.814 146.359 341.192L131.985 338.897ZM160.497 371.031C161.873 371.938 162.339 371.786 163.704 372.8C169.967 377.452 174.992 383.03 179.943 388.348C179.455 388.334 179.79 388.576 178.533 388.61C174.475 388.721 174.856 388.742 173.447 388.223C169.758 386.865 167.896 385.666 165.003 382.778H164.989C161.102 378.899 160.615 377.121 160.497 371.031Z" fill="#151515"/>
<path fill-rule="evenodd" clip-rule="evenodd" d="M273.223 575.38C274.418 565.103 274.07 542.22 272.577 532.915C270.164 517.876 266.399 504.786 261.722 495.168L259.098 489.773L250.548 490.27C239.398 490.918 218.643 490.358 210.007 489.176C196.459 487.321 185.038 483.929 174.299 478.57C164.594 473.726 156.243 467.911 158.992 467.911C159.306 467.911 161.261 469.095 163.336 470.541C168.703 474.283 177.535 478.829 184.303 481.334C201.481 487.692 219.982 489.89 247.391 488.829C268.729 488.003 271.418 487.081 282.113 476.922C285.547 473.661 290.334 469.659 292.751 468.027C302.928 461.161 305.802 454.691 304.908 440.667C304.583 435.575 304.112 433.145 302.819 429.883C300.272 423.455 298.364 417.082 293.207 397.785C287.223 375.387 284.409 366.234 280.701 357.1C275.684 344.744 270.605 337.276 264.324 333.018C262.26 331.618 256.917 327.747 252.45 324.413C235.623 311.856 223.609 306.125 201.527 300.124C196.437 298.741 192.192 297.541 192.093 297.457C191.995 297.373 195.011 285.882 198.794 271.921C217.452 203.072 222.348 183.175 221.627 179.136C221.056 175.932 198.265 107.559 194.368 97.3568C188.586 82.2208 181.111 66.0837 173.831 53.022C170.561 47.1549 161.752 33.737 159.278 30.8546L157.735 29.0573L158.029 63.5066C158.216 85.5353 158.653 102.6 159.242 110.837C160.962 134.903 161.998 158.399 162.636 187.823C163.603 219.107 164.494 253.942 165.387 280.452L165.78 291.6L171.237 291.975C177.258 292.388 181.188 293.287 181.188 294.251C181.188 294.672 180.157 294.712 178.043 294.373C172.971 293.558 156.744 293.759 153.152 294.683C150.359 295.4 149.935 295.714 149.618 297.296C149.382 298.476 149.117 298.813 148.847 298.278C148.62 297.829 145.829 292.58 142.644 286.614C125.201 242.071 101.823 195.103 85.0257 160.264C61.5401 111.569 45.8439 78.1605 35.4839 54.8193C32.8514 48.888 30.5505 43.9004 30.3709 43.7356C29.7788 43.1925 30.7747 62.9728 31.9935 75.9627C35.1109 109.189 41.5149 156.859 48.8318 201.303C53.0065 226.661 53.0385 226.783 57.1722 232.956C65.6157 245.566 92.5208 274.891 114.911 295.887L122.025 302.559L119.491 305.308C114.895 310.294 109.428 323.585 102.974 345.464C101.504 350.446 99.3818 356.512 98.2581 358.944C91.7749 372.977 89.6698 400.833 94.5318 408.254C95.0724 409.079 95.5147 409.875 95.5147 410.023C95.5147 410.171 93.7683 411.269 91.6341 412.462C82.1549 417.764 68.2813 429.684 59.8736 439.752C55.2216 445.323 49.2863 454.433 47.5958 458.598L46.3231 461.735L49.7056 471.263C68.7023 524.779 95.1241 575.278 124.907 614.994C149.967 643.463 173.446 674.263 209.175 685.346C244.049 660.723 268.724 609.87 273.223 575.38ZM157.748 390.039C161.473 393.758 165.064 396.064 169.902 397.846C172.41 398.769 174.332 398.99 178.807 398.868C183.841 398.731 184.973 398.487 188.393 396.801C190.526 395.749 193.189 393.941 194.31 392.784L196.348 390.678L194.655 388.405C182.657 372.295 157.086 353.303 144.737 351.328L142.245 350.93V356.099V361.268H146.139H150.033L150.042 368.308C150.052 379.101 151.84 384.144 157.748 390.039Z" fill="#F2F2F2"/>
</svg>
